<?xml version="1.0" encoding="utf-8"?>
<!-- Generator: Adobe Illustrator 17.0.0, SVG Export Plug-In . SVG Version: 6.00 Build 0)  -->
<!DOCTYPE svg PUBLIC "-//W3C//DTD SVG 1.1//EN" "http://www.w3.org/Graphics/SVG/1.1/DTD/svg11.dtd">
<svg version="1.1" id="Layer_1" xmlns="http://www.w3.org/2000/svg" xmlns:xlink="http://www.w3.org/1999/xlink" x="0px" y="0px"
	 width="97.625px" height="142.625px" viewBox="0 0 97.625 142.625" enable-background="new 0 0 97.625 142.625"
	 xml:space="preserve">
<path fill="#D5D8E5" d="M96.625,32.483c0-4.381-3.561-7.945-7.938-7.945h-8.505C76.313,10.839,63.709,0.767,48.788,0.767
	S21.263,10.839,17.394,24.538H8.977c-4.378,0-7.939,3.564-7.939,7.945v6.892v81.899v14.616c0,3.291,2.693,5.984,5.984,5.984h83.531
	c3.291,0,5.984-2.693,5.984-5.984v-13.505c0.051-0.364,0.087-0.733,0.087-1.111V32.483z M88.687,29.212
	c1.802,0,3.269,1.468,3.269,3.271v1.082c-0.451-0.109-0.919-0.174-1.402-0.174h-9.141c0-1.417-0.101-2.81-0.277-4.179H88.687z
	 M23.163,33.391c0-1.423,0.122-2.818,0.346-4.179h50.557c0.224,1.361,0.346,2.756,0.346,4.179H23.163z M48.788,7.767
	c11.019,0,20.435,6.992,24.047,16.771H24.741C28.353,14.758,37.769,7.767,48.788,7.767z M8.977,29.212h7.463
	c-0.176,1.37-0.277,2.763-0.277,4.179H7.022c-0.452,0-0.891,0.055-1.315,0.151v-1.059C5.708,30.68,7.174,29.212,8.977,29.212z"/>
</svg>
