<?xml version="1.0" encoding="utf-8"?>
<!-- Generator: Adobe Illustrator 17.0.0, SVG Export Plug-In . SVG Version: 6.00 Build 0)  -->
<!DOCTYPE svg PUBLIC "-//W3C//DTD SVG 1.1//EN" "http://www.w3.org/Graphics/SVG/1.1/DTD/svg11.dtd">
<svg version="1.1" id="Layer_1" xmlns="http://www.w3.org/2000/svg" xmlns:xlink="http://www.w3.org/1999/xlink" x="0px" y="0px"
	 width="163.75px" height="83.25px" viewBox="0 0 163.75 83.25" enable-background="new 0 0 163.75 83.25" xml:space="preserve">
<g>
	<path fill="#C3C3C2" d="M59.333,19.007c0-1.933-1.567-3.5-3.5-3.5h-51c-1.933,0-3.5,1.567-3.5,3.5s1.567,3.5,3.5,3.5h51
		C57.767,22.507,59.333,20.939,59.333,19.007z"/>
	<path fill="#C3C3C2" d="M158.534,36.092l-8.358-4.3c-2.739-1.409-6.232-4.707-7.763-7.328L132.111,6.827
		c-1.531-2.621-5.503-4.773-8.826-4.781L46.074,1.849c-3.323-0.008-6.571,2.696-7.216,6.01l-0.821,4.213h18.276
		c3.83,0,6.935,3.105,6.935,6.935s-3.104,6.935-6.935,6.935H35.336l-1.257,6.454h16.484c3.83,0,6.935,3.105,6.935,6.935
		s-3.104,6.935-6.935,6.935H31.378L27.97,63.761c-0.645,3.314,1.546,6.032,4.869,6.041l3.294,0.008
		c1.638-8.412,9.805-15.213,18.241-15.192c8.436,0.021,13.946,6.858,12.308,15.27l49.012,0.125
		c1.638-8.412,9.805-15.213,18.241-15.192c8.436,0.022,13.946,6.858,12.308,15.27l5.098,0.013c3.323,0.008,6.571-2.696,7.216-6.01
		l3.781-19.415C162.985,41.365,161.272,37.501,158.534,36.092z M97.578,29.708l4.224-21.688l18.296,0.047
		c0,0,6.509,6.924,13.233,21.733L97.578,29.708z"/>
	<path fill="#C3C3C2" d="M53.583,39.329c0-1.933-1.567-3.5-3.5-3.5h-36c-1.933,0-3.5,1.567-3.5,3.5s1.567,3.5,3.5,3.5h36
		C52.017,42.829,53.583,41.262,53.583,39.329z"/>
	<path fill="#C3C3C2" d="M53.727,58.621c-6.304-0.016-12.406,5.067-13.63,11.352c-1.224,6.286,2.894,11.394,9.197,11.41
		c6.304,0.016,12.406-5.066,13.63-11.352C64.149,63.746,60.031,58.638,53.727,58.621z"/>
	<path fill="#C3C3C2" d="M133.414,58.825c-6.304-0.016-12.406,5.067-13.63,11.352c-1.224,6.286,2.894,11.394,9.197,11.41
		c6.304,0.016,12.406-5.066,13.63-11.352C143.836,63.95,139.718,58.841,133.414,58.825z"/>
</g>
</svg>
