<?xml version="1.0" encoding="utf-8"?>
<!-- Generator: Adobe Illustrator 16.0.0, SVG Export Plug-In . SVG Version: 6.00 Build 0)  -->
<!DOCTYPE svg PUBLIC "-//W3C//DTD SVG 1.1//EN" "http://www.w3.org/Graphics/SVG/1.1/DTD/svg11.dtd">
<svg version="1.1" id="Layer_1" xmlns="http://www.w3.org/2000/svg" xmlns:xlink="http://www.w3.org/1999/xlink" x="0px" y="0px"
	 width="600.5px" height="119.5px" viewBox="0 0 600.5 119.5" enable-background="new 0 0 600.5 119.5" xml:space="preserve">
<path fill="#05CC88" d="M122.517,49.834c-1.181-4.525,7.009,4.243,6.483,2.796c-7.27-19.994-24.017-25.137-24.017-25.137
	c-1.892-2.716,7.54,0.706,5.183-1.326c-18.5-15.952-42.83-13.627-42.83-13.627s2.497-13.623-13.003-5.873
	c-23.25-10.159-35,2.667-35,2.667s-6.262-3.209-8.88,1.271c-1.52,2.6-0.707,5.904,4.342,13.248
	c-0.102,0.813-0.161,1.609-0.197,2.396c-1.814,2.447-4.695,7.63-2.729,14.099c0.549-1.832,3.528-2.33,3.528-2.33
	s-2.502,4.84,1.341,10.457c0.713-3.132,2.348-4.008,2.514-4.09c0.004,0.007,0.008,0.014,0.012,0.021
	c-0.045,0.289-0.512,3.628,1.276,8.225c0.614,1.578,3.551-1.704,3.551-1.704s-0.712,2.5,1.538,7.25c-4.75,17.75,4.25,42.5,4.25,42.5
	s-4.547,1.604-5.75,6.5c0.416,3.624,14,5.182,21.25,1.841l2.546-26.158l7.954,4.908c0,0,1.25,8.65-5.25,14.65
	c-2.389,2.108-4.209,3.165-3.932,7.605c19.566,14.548,33.681-3.847,33.681-3.847s14.536-21.343,9.036-42.343
	C98.5,77,96.353,93.767,96.353,93.767s-12.615,3.642-14.33,13.236c9.079,3.496,46.168,7.764,46.477-29.336
	c0,0,2.507,4.247,2.666,3.833C138.667,62,122.517,49.834,122.517,49.834z M21.871,28.316c2.393-2.317,3.918-0.653,5.224,4.245
	C27.095,32.562,18.7,33.55,21.871,28.316z M29.755,51.392l2.824-0.878c0,0-2.408-0.721-3.574-4.372c-1-2.25-0.684-5.125,3.5-5.794
	c10.907,0.331,4.664,9.16,4.664,9.16s0.836-0.116,3.937-1.116C34.818,55.642,29.755,51.392,29.755,51.392z M41.241,32.085
	c0,0,1.801-7.877,7.228-4.25C52.383,31.071,45.168,34.574,41.241,32.085z"/>
<g>
	<g>
		<path fill="#FFFFFF" d="M190.488,68.979h9.864c-1.393,1.825-3.108,3.24-5.148,4.248c-2.041,1.009-4.188,1.513-6.444,1.513
			c-2.113,0-4.068-0.42-5.868-1.261c-1.8-0.839-3.373-1.955-4.716-3.348c-1.344-1.392-2.388-3.024-3.132-4.896
			c-0.745-1.872-1.116-3.84-1.116-5.904c0-2.063,0.372-4.02,1.116-5.868c0.744-1.848,1.775-3.467,3.096-4.859
			c1.319-1.393,2.88-2.508,4.68-3.349c1.8-0.839,3.755-1.26,5.868-1.26c2.016,0,3.924,0.396,5.724,1.188
			c1.8,0.791,3.443,1.932,4.932,3.42l12.24-8.137c-2.928-3.456-6.372-6.131-10.332-8.028c-3.96-1.896-8.148-2.844-12.564-2.844
			c-4.129,0-7.981,0.781-11.556,2.34c-3.576,1.56-6.696,3.697-9.36,6.408c-2.664,2.712-4.752,5.868-6.264,9.468
			c-1.512,3.601-2.268,7.416-2.268,11.448c0,4.129,0.743,7.98,2.232,11.556c1.487,3.577,3.551,6.696,6.192,9.36
			c2.639,2.664,5.748,4.765,9.324,6.3c3.575,1.536,7.452,2.305,11.628,2.305c4.799,0,9.36-1.105,13.68-3.313v1.584h12.744V55.516
			h-24.552V68.979z M269.182,57.963c1.296-2.399,1.944-4.992,1.944-7.775c0-1.68-0.252-3.444-0.756-5.293
			c-0.504-1.847-1.236-3.467-2.196-4.859c-0.768-1.104-1.704-2.184-2.808-3.24c-1.105-1.055-2.304-2.004-3.6-2.844
			c-1.296-0.839-2.641-1.512-4.032-2.016c-1.393-0.504-2.761-0.756-4.104-0.756h-28.008v55.872h15.408l-0.072-17.28h9.432
			l9.72,17.28h16.776l-13.104-23.04C266.086,62.38,267.886,60.364,269.182,57.963z M255.07,52.01
			c-0.336,0.715-0.792,1.348-1.368,1.896c-0.576,0.549-1.249,0.978-2.016,1.288c-0.769,0.311-1.584,0.464-2.448,0.464h-8.712V43.635
			h8.712c0.864,0,1.68,0.155,2.448,0.466c0.767,0.311,1.44,0.739,2.016,1.288c0.576,0.549,1.031,1.182,1.368,1.896
			c0.335,0.716,0.504,1.504,0.504,2.361C255.574,50.506,255.405,51.294,255.07,52.01z M282.934,87.051h15.049V31.179h-15.049V87.051
			z M351.334,33.699v-2.52h-46.439v14.328h23.399L306.55,84.532v2.52h45.288V72.723H329.59L351.334,33.699z M403.39,33.699v-2.52
			h-46.44v14.328h23.4l-21.744,39.024v2.52h45.288V72.723h-22.248L403.39,33.699z M430.172,31.179h-15.479v55.872h44.855V73.227
			h-29.376V31.179z M466.1,87.051h15.048V31.179H466.1V87.051z M492.307,87.051h44.568V73.803h-30.023v-7.992h28.296v-13.32h-28.296
			V44.5h30.023v-13.32h-44.568V87.051z M591.451,66.747c-0.192-1.271-0.552-2.457-1.08-3.56c-0.672-1.485-1.584-2.767-2.735-3.845
			c-1.152-1.078-2.461-2.014-3.924-2.805c-1.465-0.791-3.024-1.461-4.681-2.012c-1.656-0.552-3.301-1.042-4.932-1.475
			c-1.681-0.432-3.288-0.803-4.824-1.114c-1.537-0.311-2.952-0.635-4.248-0.972c-1.296-0.334-2.389-0.706-3.275-1.113
			c-0.889-0.407-1.501-0.874-1.837-1.402c-0.287-0.479-0.432-1.053-0.432-1.725c0-0.91,0.216-1.641,0.648-2.191
			c0.432-0.552,0.983-0.971,1.655-1.258c0.672-0.289,1.404-0.469,2.196-0.541c0.792-0.071,1.548-0.107,2.269-0.107
			c3.023,0,5.843,0.432,8.46,1.296c2.615,0.864,5.315,1.969,8.1,3.312c1.152-2.016,2.292-3.998,3.42-5.951
			c1.127-1.951,2.292-3.941,3.492-5.969c-3.265-2.027-6.696-3.486-10.296-4.38c-3.601-0.893-7.249-1.34-10.944-1.34
			c-2.257,0-4.513,0.169-6.768,0.505c-2.257,0.336-4.404,0.914-6.444,1.73c-2.041,0.818-3.9,1.948-5.58,3.39
			c-1.681,1.442-3.049,3.27-4.104,5.479c-0.529,1.107-0.925,2.273-1.188,3.5c-0.265,1.226-0.396,2.438-0.396,3.641
			c0,3.461,0.611,6.237,1.836,8.328c1.224,2.092,2.867,3.763,4.932,5.013c1.008,0.625,2.1,1.165,3.276,1.622
			c1.175,0.457,2.411,0.878,3.708,1.262c1.247,0.386,2.543,0.722,3.888,1.01c1.343,0.289,2.711,0.602,4.104,0.937
			c1.056,0.241,2.112,0.458,3.168,0.65s2.089,0.48,3.097,0.864c0.432,0.146,0.888,0.338,1.368,0.578
			c0.479,0.241,0.936,0.517,1.367,0.829c0.433,0.313,0.792,0.673,1.08,1.081c0.288,0.41,0.433,0.878,0.433,1.406
			c0,1.106-0.252,1.96-0.756,2.561s-1.141,1.047-1.908,1.334c-0.769,0.288-1.62,0.469-2.557,0.54
			c-0.936,0.072-1.812,0.108-2.628,0.108c-2.928,0-5.7-0.348-8.315-1.044c-2.617-0.695-5.221-1.692-7.813-2.988
			c-0.576-0.335-1.177-0.623-1.8-0.863c-0.288,0.528-0.792,1.393-1.512,2.592c-0.72,1.2-1.488,2.469-2.304,3.807
			c-0.385,0.668-0.769,1.325-1.152,1.97c-0.385,0.645-0.72,1.218-1.008,1.718c-0.288,0.502-0.529,0.92-0.721,1.254
			c-0.192,0.334-0.287,0.525-0.287,0.572c0,0.096,0.19,0.263,0.575,0.501c0.384,0.191,0.624,0.287,0.721,0.287
			c3.358,1.574,6.876,2.804,10.548,3.688c3.672,0.882,7.38,1.324,11.124,1.324c3.023,0,6.048-0.276,9.071-0.827
			c3.024-0.552,5.735-1.51,8.137-2.876c2.399-1.365,4.344-3.222,5.832-5.57c1.487-2.348,2.231-5.344,2.231-8.986
			C591.739,69.274,591.643,68.016,591.451,66.747z"/>
	</g>
</g>
</svg>
